<svg width="30" height="30" viewBox="0 0 30 30" fill="none" xmlns="http://www.w3.org/2000/svg">
<g clip-path="url(#clip0_14094_7353)">
<path d="M19.7826 5H10.2174C7.33591 5 5 7.33591 5 10.2174V19.7826C5 22.6641 7.33591 25 10.2174 25H19.7826C22.6641 25 25 22.6641 25 19.7826V10.2174C25 7.33591 22.6641 5 19.7826 5Z" stroke="#B3B3B3" stroke-width="1.2" stroke-linecap="round" stroke-linejoin="round"/>
<path d="M14.9999 19.3478C17.4012 19.3478 19.3478 17.4012 19.3478 14.9999C19.3478 12.5987 17.4012 10.6521 14.9999 10.6521C12.5987 10.6521 10.6521 12.5987 10.6521 14.9999C10.6521 17.4012 12.5987 19.3478 14.9999 19.3478Z" stroke="#B3B3B3" stroke-width="1.2" stroke-miterlimit="10"/>
<path d="M20.6522 10.6522C21.3726 10.6522 21.9566 10.0682 21.9566 9.3478C21.9566 8.62743 21.3726 8.04346 20.6522 8.04346C19.9319 8.04346 19.3479 8.62743 19.3479 9.3478C19.3479 10.0682 19.9319 10.6522 20.6522 10.6522Z" fill="#B3B3B3"/>
</g>
<defs>
<clipPath id="clip0_14094_7353">
<rect width="30" height="30" fill="white"/>
</clipPath>
</defs>
</svg>
