<svg width="30" height="30" viewBox="0 0 30 30" fill="none" xmlns="http://www.w3.org/2000/svg">
<g clip-path="url(#clip0_14094_7344)">
<path d="M18.3768 15.0001L12.9497 11.3821V18.6182L18.3768 15.0001Z" stroke="#B3B3B3" stroke-width="1.2" stroke-linecap="round" stroke-linejoin="round"/>
<path d="M3 15C3 18.3693 3.3505 20.3366 3.61055 21.3542C3.68225 21.6303 3.81784 21.8857 4.00638 22.0998C4.19492 22.3139 4.43114 22.4806 4.69597 22.5866C8.48363 24.0339 14.7587 23.9999 14.7587 23.9999C14.7587 23.9999 21.0338 24.0339 24.8214 22.5866C25.0863 22.4806 25.3225 22.3139 25.511 22.0998C25.6996 21.8857 25.8352 21.6303 25.9069 21.3542C26.1669 20.3366 26.5174 18.3693 26.5174 15C26.5174 11.6307 26.1669 9.66336 25.9069 8.64578C25.8352 8.36968 25.6996 8.11429 25.511 7.90022C25.3225 7.68615 25.0863 7.51938 24.8214 7.41337C21.0338 5.96615 14.7587 6.00007 14.7587 6.00007C14.7587 6.00007 8.48363 5.96615 4.69597 7.41337C4.43114 7.51938 4.19492 7.68615 4.00638 7.90022C3.81784 8.11429 3.68225 8.36968 3.61055 8.64578C3.3505 9.66336 3 11.6307 3 15Z" stroke="#B3B3B3" stroke-width="1.2" stroke-linecap="round" stroke-linejoin="round"/>
</g>
<defs>
<clipPath id="clip0_14094_7344">
<rect width="30" height="30" fill="white"/>
</clipPath>
</defs>
</svg>
