<svg width="120" height="60" viewBox="0 0 120 60" fill="none" xmlns="http://www.w3.org/2000/svg">
<path d="M29.6774 43.6699V59.1791H32.0051V43.6699H29.6774ZM25.9582 49.2613H23.0487V50.6528H25.9582V53.9166C25.4016 54.1443 24.8956 54.2708 24.1366 54.2708H20.8476C20.5439 54.2708 20.2909 54.0178 20.2909 53.7142V45.9976H24.5414V44.8843H17.8621V54.2961C17.8621 54.9033 18.3681 55.4093 18.9753 55.4093H24.1366C24.9209 55.4093 25.5534 55.2828 25.9582 55.0045V59.2044H28.2859V43.6952H25.9582V49.2613Z" fill="white"/>
<path d="M8.77925 51.8669V50.3489H13.8899V49.2357H4.27577C3.97217 49.2357 3.71917 48.9827 3.71917 48.6791V47.6923H13.6622V43.9226H1.29032V45.0358H11.2587V46.5538H1.29032V49.2104C1.29032 49.8176 1.79633 50.3236 2.40354 50.3236H6.35041V51.8416H0V52.9548H15.1803V51.8416H8.77925V51.8669ZM8.82985 53.6885H6.14801C5.4396 56.6487 1.94813 58.1161 0.657812 58.3185L1.31562 59.3052C2.63125 59.1534 5.6167 58.0655 7.48893 56.0415C9.36116 58.0908 12.3466 59.1534 13.6622 59.3052L14.3201 58.3185C13.055 58.1161 9.53827 56.6487 8.82985 53.6885Z" fill="white"/>
<path d="M39.6964 44.0741C40.4807 44.0741 41.1638 44.2006 41.771 44.4789C42.3529 44.7572 42.8589 45.1367 43.2384 45.5921C43.6179 46.0729 43.9216 46.6042 44.0987 47.262C44.3011 47.8945 44.377 48.5776 44.377 49.286C44.377 49.9944 44.2758 50.6522 44.0987 51.2847C43.8963 51.9173 43.6179 52.4486 43.2384 52.9293C42.8589 53.41 42.3529 53.7895 41.771 54.0678C41.1891 54.3461 40.4807 54.4726 39.6964 54.4726C38.8868 54.4726 38.2037 54.3461 37.6217 54.0678C37.0398 53.7895 36.5338 53.41 36.1543 52.9293C35.7748 52.4486 35.4712 51.9173 35.2688 51.2847C35.0664 50.6522 34.9652 49.9944 34.9652 49.286C34.9652 48.5776 35.0664 47.9198 35.2688 47.262C35.4712 46.6295 35.7495 46.0729 36.1543 45.5921C36.5338 45.1114 37.0398 44.7572 37.6217 44.4789C38.2037 44.2006 38.8868 44.0741 39.6964 44.0741ZM39.6964 53.3088C40.0506 53.3088 40.3795 53.2076 40.6578 52.9799C40.9361 52.7775 41.1891 52.4739 41.3915 52.1197C41.5939 51.7655 41.771 51.3353 41.8722 50.8293C41.9734 50.3486 42.0493 49.8173 42.0493 49.2607C42.0493 48.7041 41.9987 48.1728 41.8722 47.6668C41.771 47.1608 41.5939 46.7307 41.3915 46.3765C41.1891 46.0223 40.9361 45.7187 40.6578 45.5162C40.3795 45.3138 40.0506 45.2126 39.6964 45.2126C39.3169 45.2126 38.988 45.3138 38.7097 45.5162C38.4314 45.7187 38.1531 46.0223 37.9507 46.3765C37.7482 46.7307 37.5711 47.1608 37.4699 47.6668C37.3434 48.1728 37.2928 48.7041 37.2928 49.2607C37.2928 49.8173 37.3434 50.3486 37.4699 50.8293C37.5964 51.31 37.7482 51.7402 37.9507 52.1197C38.1531 52.4992 38.4061 52.7775 38.7097 52.9799C38.988 53.2076 39.3169 53.3088 39.6964 53.3088ZM46.8564 43.6946H49.184V59.3556H46.8564V43.6946Z" fill="white"/>
<path d="M52.2454 56.1931V55.0546H58.7982V51.7656H55.3068C54.9273 51.7656 54.649 51.6643 54.4466 51.4366C54.2442 51.2342 54.143 50.9306 54.143 50.6017V44.1248H56.4453V50.121C56.4453 50.2728 56.4706 50.3993 56.5212 50.4752C56.5718 50.5764 56.6983 50.6017 56.8754 50.6017H65.8824V51.7403H61.2018V55.0293H67.9823V56.1678H52.2454V56.1931Z" fill="white"/>
<path d="M71.3219 54.8521C70.8412 54.8521 70.487 54.7256 70.234 54.4725C69.981 54.2195 69.8798 53.8653 69.8798 53.4605V44.2512H72.1821V47.9197H74.4845V44.2512H76.7868V48.5016H78.4567V43.7199H80.7084V59.229H78.4567V49.6655H76.7868V54.8774H71.3219V54.8521ZM72.1821 53.2834C72.1821 53.4099 72.2075 53.5111 72.258 53.587C72.3086 53.6629 72.4352 53.6882 72.587 53.6882H74.4845V49.0836H72.1821V53.2834ZM82.0746 43.6946H84.3264V59.2037H82.0746V43.6946Z" fill="white"/>
<path d="M91.7394 44.0741C92.5237 44.0741 93.2068 44.2006 93.814 44.4789C94.3959 44.7572 94.9019 45.1367 95.2814 45.5921C95.6609 46.0728 95.9646 46.6041 96.1417 47.2619C96.3441 47.8944 96.42 48.5775 96.42 49.286C96.42 49.9944 96.3188 50.6522 96.1417 51.2847C95.9393 51.9172 95.6609 52.4485 95.2814 52.9292C94.9019 53.4099 94.3959 53.7894 93.814 54.0677C93.2321 54.346 92.5237 54.4725 91.7394 54.4725C90.9298 54.4725 90.2467 54.346 89.6647 54.0677C89.0828 53.7894 88.5768 53.4099 88.1973 52.9292C87.8178 52.4485 87.5142 51.9172 87.3118 51.2847C87.1094 50.6522 87.0082 49.9944 87.0082 49.286C87.0082 48.5775 87.1094 47.9197 87.3118 47.2619C87.5142 46.6294 87.7925 46.0728 88.1973 45.5921C88.5768 45.1114 89.0828 44.7572 89.6647 44.4789C90.2467 44.2006 90.9551 44.0741 91.7394 44.0741ZM91.7394 53.3087C92.0936 53.3087 92.4225 53.2075 92.7008 52.9798C92.9791 52.7774 93.2321 52.4738 93.4598 52.1196C93.6875 51.7654 93.8393 51.3353 93.9405 50.8293C94.0417 50.3486 94.1176 49.8173 94.1176 49.2607C94.1176 48.704 94.067 48.1727 93.9405 47.6667C93.8393 47.1607 93.6622 46.7306 93.4598 46.3764C93.2574 46.0222 93.0044 45.7186 92.7008 45.5162C92.4225 45.3138 92.0936 45.2126 91.7394 45.2126C91.3599 45.2126 91.031 45.3138 90.7527 45.5162C90.4491 45.7186 90.1961 46.0222 89.9937 46.3764C89.7913 46.7306 89.6141 47.1607 89.5129 47.6667C89.3864 48.1727 89.3358 48.704 89.3358 49.2607C89.3358 49.8173 89.3864 50.3486 89.5129 50.8293C89.6394 51.31 89.7913 51.7401 89.9937 52.1196C90.1961 52.4991 90.4491 52.7774 90.7527 52.9798C91.0563 53.2075 91.3852 53.3087 91.7394 53.3087ZM98.9247 43.6946H101.252V59.3555H98.9247V43.6946Z" fill="white"/>
<path d="M120 55.2321V56.3706H104.288V55.2321H120ZM117.875 44.1505V45.289H108.463V47.7178H117.875V48.8563H108.463V50.8045C108.463 50.9816 108.514 51.1081 108.59 51.2093C108.665 51.3105 108.817 51.3611 109.02 51.3611H118.128V52.4743H107.324C106.945 52.4743 106.667 52.3731 106.464 52.1707C106.262 51.9683 106.161 51.69 106.161 51.3864V44.1758H117.875V44.1505Z" fill="white"/>
<path d="M67.8304 34.0803C63.7318 38.179 57.0525 38.179 52.9538 34.0803L45.3889 26.5155C41.2903 22.4168 41.2903 15.7375 45.3889 11.6388L52.9538 4.074C57.0525 -0.024668 63.7318 -0.024668 67.8304 4.074L75.3953 11.6641C79.4939 15.7628 79.4939 22.4421 75.3953 26.5408L67.8304 34.0803Z" fill="white"/>
<path d="M55.914 30.1839C55.3068 30.1839 54.8261 29.7032 54.8008 29.1213C54.8008 28.8177 54.902 28.5394 55.1044 28.3117C55.3068 28.084 55.5851 27.9575 55.8887 27.9575C56.4959 27.9322 57.0272 28.4129 57.0525 29.0201C57.0778 29.6273 56.5971 30.1586 55.9899 30.1839C55.9393 30.1839 55.9393 30.1839 55.914 30.1839Z" fill="#545863"/>
<path d="M59.9873 9.56417C59.3801 9.56417 58.8741 9.76657 58.4946 10.1461C57.6344 11.0063 57.179 12.752 57.2296 15.105C57.2802 17.9892 57.9633 23.6565 60.2403 26.5661C60.6199 27.0468 60.9994 27.4263 61.4042 27.6793C61.809 27.9323 62.2644 28.2106 62.9475 28.2106C63.1246 28.2106 63.3523 28.1853 63.5547 28.16C64.845 27.8564 66.4896 26.389 67.704 24.4661C67.8811 24.1625 68.21 23.9854 68.5642 23.9854C68.7413 23.9854 68.9437 24.036 69.0955 24.1372C69.3232 24.289 69.475 24.4914 69.5509 24.7697C69.6015 25.0227 69.5762 25.301 69.4244 25.5287C67.8811 27.9576 65.857 29.678 64.0101 30.1081C64.0101 30.1081 63.9848 30.1081 63.9595 30.1081C63.6306 30.1587 63.2764 30.2093 62.9728 30.2093C61.7837 30.2093 60.9235 29.7539 60.3162 29.3491C59.709 28.9443 59.1777 28.4383 58.6717 27.7805C55.4839 23.6818 55.2562 15.9905 55.2562 15.1303C55.2309 13.0809 55.5092 10.3232 57.1031 8.72925C57.8874 7.94494 58.8488 7.56543 60.0126 7.56543H60.1897C61.3283 7.56543 62.315 7.97024 63.0993 8.72925C64.6932 10.3232 64.9968 13.0809 64.9462 15.1303C64.9209 17.2555 64.5161 21.4048 62.315 25.0986C62.1379 25.4022 61.809 25.5793 61.4548 25.5793C61.2777 25.5793 61.1006 25.5287 60.9488 25.4275C60.468 25.1492 60.3162 24.5167 60.5945 24.0613C62.1379 21.4807 62.8969 18.6217 62.9475 15.0797C62.9981 12.7267 62.5427 10.981 61.6825 10.1208C61.2777 9.71597 60.797 9.53886 60.1897 9.53886L59.9873 9.56417Z" fill="#545863"/>
</svg>
